<svg xmlns="http://www.w3.org/2000/svg" xmlns:xlink="http://www.w3.org/1999/xlink" height="48" width="48" style=""><rect id="backgroundrect" width="100%" height="100%" x="0" y="0" fill="none" stroke="none" class="" style=""/><defs><path d="M48 0v48H0V0h48z" id="a"/></defs><clipPath id="b"><use overflow="visible" xlink:href="#a" id="svg_1"/></clipPath><g class="currentLayer" style=""><title>Layer 1</title><path clip-path="url(#b)" d="M24,4 C12.95,4 4,12.95 4,24 s8.95,20 20,20 s20,-8.95 20,-20 S35.05,4 24,4 zm0,36 c-8.82,0 -16,-7.18 -16,-16 S15.18,8 24,8 s16,7.18 16,16 s-7.18,16 -16,16 zm-3.84,-18.27 c0.11000000000000006,-0.6500000000000006 0.3100000000000002,-1.23 0.6000000000000004,-1.7400000000000002 s0.6900000000000007,-0.92 1.18,-1.23 c0.4700000000000002,-0.2900000000000002 1.06,-0.45 1.79,-0.46 c0.4800000000000002,0.010000000000000007 0.92,0.0900000000000001 1.3,0.26 c0.4100000000000002,0.1800000000000001 0.7500000000000004,0.4200000000000002 1.04,0.7200000000000004 s0.51,0.6600000000000007 0.6700000000000007,1.06 s0.25,0.8300000000000004 0.27,1.28 h3.58 c-0.030000000000000027,-0.9400000000000004 -0.2200000000000001,-1.8 -0.55,-2.58 s-0.81,-1.45 -1.4100000000000001,-2.02 s-1.32,-1 -2.16,-1.31 s-1.77,-0.4700000000000002 -2.79,-0.4700000000000002 c-1.3,0 -2.43,0.2200000000000001 -3.39,0.6700000000000007 s-1.7600000000000002,1.06 -2.4,1.84 s-1.12,1.6800000000000006 -1.4300000000000002,2.71 s-0.46,2.12 -0.46,3.27 v0.55 c0,1.1600000000000001 0.16000000000000014,2.25 0.4700000000000002,3.2800000000000002 s0.79,1.9300000000000002 1.4300000000000002,2.7 s1.44,1.3800000000000001 2.41,1.83 s2.1,0.6700000000000007 3.4,0.6700000000000007 c0.9400000000000004,0 1.82,-0.1500000000000001 2.64,-0.46 s1.54,-0.7300000000000004 2.16,-1.27 s1.12,-1.1600000000000001 1.48,-1.8800000000000003 s0.5700000000000004,-1.48 0.6000000000000004,-2.3 h-3.58 c-0.020000000000000014,0.4200000000000002 -0.12000000000000002,0.8 -0.3000000000000002,1.1600000000000001 s-0.4200000000000002,0.6600000000000007 -0.7200000000000004,0.91 s-0.6500000000000006,0.45 -1.05,0.5900000000000004 c-0.3800000000000002,0.13 -0.78,0.2 -1.21,0.2 c-0.7200000000000004,-0.020000000000000014 -1.31,-0.17 -1.79,-0.4700000000000002 c-0.5,-0.3200000000000003 -0.9,-0.7300000000000004 -1.19,-1.24 s-0.4900000000000002,-1.09 -0.6000000000000004,-1.75 s-0.1500000000000001,-1.3 -0.1500000000000001,-1.97 v-0.55 c0,-0.6800000000000007 0.05000000000000004,-1.35 0.16000000000000014,-2 z" id="svg_2" class="selected" fill-opacity="1" fill="#fd3131"/></g></svg>