<?xml version="1.0" encoding="utf-8"?>
<!-- Generator: Adobe Illustrator 24.0.2, SVG Export Plug-In . SVG Version: 6.00 Build 0)  -->
<svg version="1.1" id="Layer_1" xmlns="http://www.w3.org/2000/svg" xmlns:xlink="http://www.w3.org/1999/xlink" x="0px" y="0px"
	 viewBox="0 0 500 500" style="enable-background:new 0 0 500 500;" xml:space="preserve">
<style type="text/css">
	.st0{fill-rule:evenodd;clip-rule:evenodd;fill:#FD3131;}
</style>
<path class="st0" d="M31.9,431.7c0,20.1,16.3,36.3,36.3,36.3h363.4c20.1,0,36.3-16.3,36.3-36.3V68.3c0-20.1-16.3-36.3-36.3-36.3
	H68.3C48.2,32,32,48.2,32,68.3L31.9,431.7L31.9,431.7z M259.1,413.5V268.2h-36.3v-54.5h36.3c0-93.7,4-99.9,118.1-99.9v54.5
	c-60.1,0-54.5,3.4-54.5,45.4h54.5v54.5h-54.5v145.4L259.1,413.5L259.1,413.5z"/>
</svg>
