<svg width="30" height="30" xmlns="http://www.w3.org/2000/svg" stroke="null" style="vector-effect: non-scaling-stroke;">
 <!-- Created with Method Draw - http://github.com/duopixel/Method-Draw/ -->

 <g stroke="null">
  <title stroke="null">background</title>
  <rect stroke="null" fill="none" id="canvas_background" height="32" width="32" y="-1" x="-1"/>
  <g stroke="null" style="vector-effect: non-scaling-stroke;" display="none" overflow="visible" y="0" x="0" height="100%" width="100%" id="canvasGrid">
   <rect stroke="null" fill="url(#gridpattern)" stroke-width="0" y="0" x="0" height="100%" width="100%"/>
  </g>
 </g>
 <g stroke="null">
  <title stroke="null">Layer 1</title>
  <g stroke="null" id="svg_11">
   <g stroke="null" transform="matrix(0.6031146492718704,0,0,0.6654779594856461,666.4856312501,-745.341599382639) " id="svg_5">
    <path stroke="null" fill="#fd3131" id="svg_6" d="m-1094.900243,1144.649681c0,0.4 0.2,0.6 0.6,0.6c0.7,0 1.1,-0.6 1.2,-1.5c-0.2,0 -0.2,0 -0.4,0c-0.9,0 -1.4,0.3 -1.4,0.9z"/>
    <path stroke="null" fill="#fd3131" id="svg_7" d="m-1069.300243,1144.649681c0,0.4 0.2,0.6 0.6,0.6c0.7,0 1.1,-0.6 1.2,-1.5c-0.2,0 -0.2,0 -0.4,0c-1,0 -1.4,0.3 -1.4,0.9z"/>
    <path stroke="null" fill="#fd3131" id="svg_8" d="m-1081.500243,1141.649681c-0.5,0 -0.9,0.4 -1,1.1l1.8,0c0,-0.2 0.2,-1.1 -0.8,-1.1z"/>
    <path stroke="null" fill="#fd3131" id="svg_9" d="m-1059.800243,1141.849681c-0.7,0 -1.3,0.9 -1.3,2.1c0,0.8 0.3,1.2 0.8,1.2c0.8,0 1.3,-0.9 1.3,-2.1c0.1,-0.8 -0.2,-1.2 -0.8,-1.2z"/>
    <path stroke="null" fill="#fd3131" id="svg_10" d="m-1070.200243,1127.649681c-3.8,0 -7.3,1.4 -10,3.8c-2.6,-2.4 -6.1,-3.8 -9.9,-3.8c-8.2,0 -14.9,6.7 -14.9,14.9c0,8.2 6.7,14.9 14.9,14.9c3.8,0 7.3,-1.4 9.9,-3.8c2.6,2.4 6.1,3.8 10,3.8c8.2,0 14.9,-6.7 14.9,-14.9c0,-8.2 -6.7,-14.9 -14.9,-14.9zm-28.5,18.9l0.9,-5.8l-2.1,5.8l-1.1,0l-0.1,-5.8l-1,5.8l-1.5,0l1.3,-7.6l2.3,0l0.1,4.7l1.6,-4.7l2.5,0l-1.3,7.6l-1.6,0zm5.4,0l0,-0.6c-0.4,0.5 -1,0.7 -1.7,0.7c-0.9,0 -1.5,-0.7 -1.5,-1.7c0,-1.5 1,-2.4 2.8,-2.4c0.2,0 0.4,0 0.7,0c0.1,-0.2 0.1,-0.3 0.1,-0.4c0,-0.4 -0.3,-0.6 -1,-0.6c-0.8,0 -1.4,0.2 -1.7,0.3c0,-0.1 0.2,-1.4 0.2,-1.4c0.8,-0.2 1.3,-0.3 1.9,-0.3c1.4,0 2.1,0.6 2.1,1.8c0,0.3 0,0.7 -0.1,1.2c-0.1,0.9 -0.4,2.8 -0.5,3.3c-0.2,0.1 -1.3,0.1 -1.3,0.1zm4.8,-3.7c0.8,0.4 1.1,0.9 1.1,1.7c0,1.4 -0.8,2.1 -2.5,2.1c-1,0 -1.3,-0.1 -1.7,-0.2c0,-0.1 0.2,-1.4 0.2,-1.4c0.5,0.2 1,0.2 1.5,0.2c0.6,0 0.9,-0.2 0.9,-0.6c0,-0.3 -0.1,-0.4 -0.8,-0.7c-0.9,-0.4 -1.2,-0.9 -1.2,-1.7c0,-1.1 0.6,-2.1 2.4,-2.1c0.4,0 1,0.1 1.4,0.1l-0.2,1.4c-0.4,-0.1 -0.8,-0.1 -1.2,-0.1c-0.5,0 -0.8,0.2 -0.8,0.5c0.1,0.4 0.2,0.5 0.9,0.8zm3.5,2.3c0.2,0 0.3,0 0.4,-0.1l-0.2,1.4c-0.4,0.1 -0.8,0.2 -1.2,0.2c-0.8,0 -1.3,-0.5 -1.3,-1.4c0,-0.3 0.1,-1 0.2,-1.6c0.1,-0.6 0.7,-4.2 0.7,-4.2l1.6,0l-0.2,0.9l0.8,0l-0.2,1.5l-0.8,0c-0.2,1.2 -0.5,2.6 -0.5,2.8c0.2,0.3 0.4,0.5 0.7,0.5zm3.8,0.1c0.6,0 1.1,-0.1 1.7,-0.4l-0.3,1.5c-0.6,0.2 -1.1,0.2 -1.7,0.2c-1.8,0 -2.7,-0.9 -2.7,-2.7c0,-2.1 1.2,-3.7 2.8,-3.7c1.3,0 2.2,0.9 2.2,2.2c0,0.5 -0.1,0.9 -0.2,1.5l-3.2,0c-0.1,1 0.5,1.4 1.4,1.4zm3.6,1.3l-1.6,0l0.1,-0.4c0.3,-1.9 0.6,-3.8 0.8,-5.7l1.5,0c0,0.3 -0.1,0.6 -0.1,0.9c0.5,-0.7 0.9,-1.1 1.6,-1c-0.2,0.3 -0.5,1 -0.6,1.8c-1,-0.1 -1.1,0.6 -1.7,4.4zm6.2,-0.1c-0.6,0.2 -1,0.2 -1.4,0.2c-1.7,0 -2.8,-1.3 -2.8,-3.3c0,-2.7 1.5,-4.6 3.7,-4.6c0.7,0 1.5,0.3 1.8,0.4l-0.3,1.6c-0.6,-0.3 -1,-0.4 -1.4,-0.4c-1.2,0 -2.1,1.2 -2.1,2.8c0,1.1 0.6,1.8 1.5,1.8c0.4,0 0.8,-0.1 1.4,-0.4l-0.4,1.9zm5,0.1c-0.2,0 -1.3,0 -1.3,0l0,-0.6c-0.4,0.5 -1,0.7 -1.7,0.7c-0.9,0 -1.5,-0.7 -1.5,-1.7c0,-1.5 1,-2.4 2.8,-2.4c0.2,0 0.4,0 0.7,0c0.1,-0.2 0.1,-0.3 0.1,-0.4c0,-0.4 -0.3,-0.6 -1,-0.6c-0.8,0 -1.4,0.2 -1.7,0.3c0,-0.1 0.2,-1.4 0.2,-1.4c0.8,-0.2 1.3,-0.3 1.9,-0.3c1.4,0 2.1,0.6 2.1,1.8c0,0.3 0,0.7 -0.1,1.2c-0.2,1 -0.5,2.9 -0.5,3.4zm2.2,0l-1.6,0l0.1,-0.4c0.3,-1.9 0.6,-3.8 0.8,-5.7l1.5,0c0,0.3 -0.1,0.6 -0.1,0.9c0.5,-0.7 0.9,-1.1 1.6,-1c-0.2,0.3 -0.5,1 -0.6,1.8c-1,-0.1 -1.2,0.6 -1.7,4.4zm4.8,0l0.1,-0.6c-0.4,0.5 -0.9,0.7 -1.5,0.7c-1.2,0 -2,-1 -2,-2.6c0,-2 1.2,-3.8 2.6,-3.8c0.6,0 1.1,0.3 1.5,0.8l0.4,-2.2l1.6,0l-1.2,7.6l-1.5,0l0,0.1z"/>
   </g>
  </g>
 </g>
</svg>