<svg width="30" height="30" xmlns="http://www.w3.org/2000/svg">

 <g>
  <title>background</title>
  <rect fill="none" id="canvas_background" height="32" width="32" y="-1" x="-1"/>
 </g>
 <g>
  <title>Layer 1</title>
  <g stroke="null" fill="white" id="svg_11">
   <g stroke="null" transform="matrix(0.6055727145677496,0,0,0.6012816376276956,10.562383113425472,10.491598273248723) " id="svg_6">
    <path stroke="null" fill="#fd3131" id="svg_7" d="m17.997962,2.139171c-1.105,5.01 -5.221,8.25 -10.486,8.25l-2.719,0l-1.137,5.164l-0.346,1.574l-1.611,0l-2.023,0l-0.573,2.543l6.059,0l1.482,-6.738l4.328,0c4.141,0 7.604,-2.471 8.529,-6.674c0.539,-2.443 -0.127,-4.199 -1.311,-5.332c-0.036,0.387 -0.099,0.791 -0.192,1.213z"/>
    <path stroke="null" fill="#fd3131" id="svg_8" d="m1.698962,15.121171l1.484,-6.736l4.328,0c0.051,0 0.102,-0.004 0.152,-0.006c2.461,-0.037 4.67,-0.951 6.236,-2.586c1.027,-1.068 1.777,-2.443 2.141,-4.086c0.158,-0.721 0.211,-1.381 0.178,-1.984c-0.047,-0.866 -0.273,-1.612 -0.631,-2.243c-1.029,-1.832 -3.137,-2.693 -5.047,-2.693l-10.324,0l-4.575,20.334l2.431,0l2.055,0l1.572,0zm3.553,-15.787l0.096,-0.407l2.967,0c0.512,0 0.963,0.148 1.318,0.407c0.676,0.486 1.006,1.363 0.721,2.373c-0.162,0.676 -0.547,1.289 -1.055,1.768c-0.184,0.172 -0.385,0.324 -0.598,0.459c-0.551,0.348 -1.18,0.559 -1.811,0.559l-2.842,0l1.204,-5.159z"/>
    <path stroke="null" fill="#fd3131" id="svg_9" d="m8.405962,1.240171l0.008,-0.035l0.01,-0.039c0.033,-0.117 0.031,-0.188 0.027,-0.217c-0.021,-0.008 -0.064,-0.018 -0.137,-0.018l-1.377,0l-0.363,1.557l0.316,0c0.625,0 1.362,-0.607 1.516,-1.248z"/>
    <path stroke="null" fill="#fd3131" id="svg_10" d="m7.327962,-17.091829c-13.6,0 -24.625,11.023 -24.625,24.624c0,13.6 11.024,24.625 24.625,24.625c13.6,0 24.625,-11.025 24.625,-24.625c0,-13.601 -11.026,-24.624 -24.625,-24.624zm14.131,23.781c-1.104,5.01 -5.221,8.246 -10.486,8.246l-2.717,0l-1.137,5.164l-0.348,1.574l-1.609,0l-6.059,0l-2.505,0l0.55,-2.443l0.474,-2.104l-1.98,0l-2.504,0l0.55,-2.443l4.575,-20.338l0.352,-1.564l1.603,0l10.323,0c2.459,0 4.77,1.049 6.182,2.805c0.521,0.65 1.055,1.566 1.326,2.773c0.828,0.457 1.557,1.057 2.133,1.774c0.976,1.215 1.987,3.336 1.277,6.556z"/>
   </g>
  </g>
 </g>
</svg>