<svg xmlns:sketch="http://www.bohemiancoding.com/sketch/ns" xmlns="http://www.w3.org/2000/svg" xmlns:xlink="http://www.w3.org/1999/xlink" version="1.1" style="" xml:space="preserve" width="32" height="32"><rect id="backgroundrect" width="100%" height="100%" x="0" y="0" fill="none" stroke="none"/>
<style type="text/css">
	.st0{fill-rule:evenodd;clip-rule:evenodd;fill:#231F20;}
</style>
<title/>
<desc/>

<g class="currentLayer" style=""><title>Layer 1</title><g id="Page-1" class="selected" fill="#41e8e8" fill-opacity="1" stroke="#ddd4d4" stroke-opacity="1">
	<g id="icon-111-search" fill="#41e8e8" fill-opacity="1" stroke="#ddd4d4" stroke-opacity="1">
		<path id="search" class="st0" d="M19.4,21.4c-1.4,1-3.1,1.6-4.9,1.6C9.8,23,6,19.2,6,14.5S9.8,6,14.5,6S23,9.8,23,14.5    c0,1.8-0.6,3.5-1.6,4.9L27,25c0.6,0.6,0.5,1.4,0,2l0,0c-0.5,0.5-1.4,0.5-2,0L19.4,21.4L19.4,21.4z M14.5,21c3.6,0,6.5-2.9,6.5-6.5    S18.1,8,14.5,8S8,10.9,8,14.5S10.9,21,14.5,21L14.5,21z" fill="#41e8e8" fill-opacity="1" stroke="#ddd4d4" stroke-opacity="1"/>
	</g>
</g></g></svg>