<svg width="24" height="24" xmlns="http://www.w3.org/2000/svg">

 <g>
  <title>background</title>
  <rect fill="none" id="canvas_background" height="402" width="582" y="-1" x="-1"/>
 </g>
 <g>
  <title>Layer 1</title>
  <path fill="#fd3131" id="svg_1" d="m18.2,10.5l0.4,2.1l-1.2,0l0.8,-2.1zm3.8,-4.5l0,12c0,1.1 -0.9,2 -2,2l-16,0c-1.1,0 -2,-0.9 -2,-2l0,-12c0,-1.1 0.9,-2 2,-2l16,0c1.1,0 2,0.9 2,2zm-15.5,5.9l-0.5,-2.5c0,0 -0.2,-0.5 -0.8,-0.5c-0.6,0 -2.2,0 -2.2,0s2.9,0.9 3.5,3zm0.8,2.5l2.1,-5.6l-1.4,0l-1.3,4c0,0 -0.1,-0.3 -0.1,-0.5c-0.7,-1.7 -1.9,-2.4 -1.9,-2.4l1.1,4.5l1.5,0zm4.2,-5.5l-1.5,0l-0.8,5.6l1.4,0l0.9,-5.6zm3.9,3.7c0,-1.4 -2,-1.5 -2,-2.2c0,-0.3 0.2,-0.6 0.9,-0.6c0.5,0 1,0.4 1,0.4l0.3,-1.2c0,0 -0.7,-0.3 -1.3,-0.3c-1.5,0 -2.2,0.8 -2.2,1.7c0,1.8 2,1.5 2,2.4c0,0.2 -0.1,0.5 -0.9,0.5c-0.8,0 -1.4,-0.3 -1.4,-0.3l-0.2,1.2c0,0 0.5,0.3 1.5,0.3c0.9,0.1 2.3,-0.7 2.3,-1.9zm4.9,1.8l-1.1,-5.6l-1.5,0l-2.3,5.6l1.4,0l0.3,-0.8l1.8,0l0.2,0.8l1.2,0z"/>
 </g>
</svg>